<?xml version="1.0"?>
<svg width="52" height="52" xmlns="http://www.w3.org/2000/svg" xmlns:svg="http://www.w3.org/2000/svg" enable-background="new 0 0 431.771 431.771" version="1.1" xml:space="preserve">
 <title>ecg-lines</title>
 <g class="layer">
  <title>Layer 1</title>
  <g id="svg_1">
   <g id="svg_2">
    <path d="m40.61,25.35c0.21,0.63 0.75,1.05 1.35,1.05l6.36,0c0.8,0 1.45,-0.72 1.45,-1.61c0,-0.89 -0.65,-1.61 -1.45,-1.61l-5.36,0l-2.89,-8.62c-0.21,-0.62 -0.73,-1.04 -1.32,-1.05c-0.59,-0.01 -1.13,0.37 -1.37,0.97l-2.6,6.76l-3.37,-13.98c-0.18,-0.72 -0.78,-1.22 -1.45,-1.19c-0.67,0.03 -1.24,0.56 -1.37,1.3l-4.03,23.29l-2.85,-12.57c-0.15,-0.68 -0.69,-1.18 -1.32,-1.22c-0.64,-0.03 -1.21,0.38 -1.44,1.05l-2.07,6.15l-5.46,0c-0.8,0 -1.45,0.72 -1.45,1.61c0,0.89 0.65,1.61 1.45,1.61l6.47,0c0.6,0 1.14,-0.42 1.35,-1.05l0.8,-2.39l3.31,14.61c0.16,0.72 0.74,1.22 1.4,1.22c0.01,0 0.02,0 0.05,0c0.68,-0.03 1.25,-0.56 1.38,-1.31l4.06,-23.53l2.81,11.71c0.16,0.67 0.68,1.14 1.3,1.19c0.6,0.04 1.19,-0.34 1.42,-0.97l2.83,-7.34l1.97,5.89l0.02,0.03z" id="svg_3"/>
   </g>
  </g>
  <path d="m2,45.99c0,2.25 1.8,4.09 4,4.09l42.4,0c0.9,0 1.6,-0.71 1.6,-1.63l0,-2.86c0,-0.92 -0.7,-1.63 -1.6,-1.63l-38.9,0c-0.8,0 -1.5,-0.71 -1.5,-1.53l0,-38.71c0,-0.92 -0.7,-1.63 -1.6,-1.63l-2.8,0c-0.9,0 -1.6,0.71 -1.6,1.63l0,42.28z" id="svg_4"/>
 </g>
</svg>