<?xml version="1.0"?>
<svg width="52" height="52" xmlns="http://www.w3.org/2000/svg" xmlns:svg="http://www.w3.org/2000/svg" enable-background="new 0 0 431.771 431.771" version="1.1" xml:space="preserve">
 <title>ecg-lines</title>
 <g class="layer">
  <title>Layer 1</title>
  <g id="svg_1">
   <g id="svg_2">
    <path d="m37.99,28.76c0.18,0.48 0.64,0.8 1.15,0.8l5.4,0c0.68,0 1.23,-0.55 1.23,-1.23c0,-0.68 -0.55,-1.23 -1.23,-1.23l-4.55,0l-2.45,-6.57c-0.18,-0.47 -0.62,-0.79 -1.12,-0.8c-0.5,-0.01 -0.96,0.28 -1.16,0.74l-2.21,5.15l-2.86,-10.65c-0.15,-0.55 -0.66,-0.93 -1.23,-0.91c-0.57,0.02 -1.05,0.43 -1.16,0.99l-3.42,17.75l-2.42,-9.58c-0.13,-0.52 -0.59,-0.9 -1.12,-0.93c-0.54,-0.02 -1.03,0.29 -1.22,0.8l-1.76,4.69l-4.64,0c-0.68,0 -1.23,0.55 -1.23,1.23c0,0.68 0.55,1.23 1.23,1.23l5.49,0c0.51,0 0.97,-0.32 1.15,-0.8l0.68,-1.82l2.81,11.13c0.14,0.55 0.63,0.93 1.19,0.93c0.01,0 0.02,0 0.04,0c0.58,-0.02 1.06,-0.43 1.17,-1l3.45,-17.93l2.39,8.92c0.14,0.51 0.58,0.87 1.1,0.91c0.51,0.03 1.01,-0.26 1.21,-0.74l2.4,-5.59l1.67,4.49z" id="svg_3"/>
   </g>
  </g>
  <line fill="none" id="svg_5" stroke="#000000" stroke-width="4" x1="6.39" x2="6.39" y1="3.83" y2="46.88"/>
  <line fill="none" id="svg_7" stroke="#000000" stroke-width="4" x1="4.5" x2="48.33" y1="45.49" y2="45.49"/>
 </g>
</svg>